<?xml version="1.0" encoding="utf-8" standalone="no"?>
<!DOCTYPE svg PUBLIC "-//W3C//DTD SVG 1.1//EN"
  "http://www.w3.org/Graphics/SVG/1.1/DTD/svg11.dtd">
<svg xmlns:xlink="http://www.w3.org/1999/xlink" width="728.39952pt" height="209.99952pt" viewBox="0 0 728.39952 209.99952" xmlns="http://www.w3.org/2000/svg" version="1.1">
 <metadata>
  <rdf:RDF xmlns:dc="http://purl.org/dc/elements/1.1/" xmlns:cc="http://creativecommons.org/ns#" xmlns:rdf="http://www.w3.org/1999/02/22-rdf-syntax-ns#">
   <cc:Work>
    <dc:type rdf:resource="http://purl.org/dc/dcmitype/StillImage"/>
    <dc:date>2026-02-05T23:07:43.021778</dc:date>
    <dc:format>image/svg+xml</dc:format>
    <dc:creator>
     <cc:Agent>
      <dc:title>Matplotlib v3.10.8, https://matplotlib.org/</dc:title>
     </cc:Agent>
    </dc:creator>
   </cc:Work>
  </rdf:RDF>
 </metadata>
 <defs>
  <style type="text/css">*{stroke-linejoin: round; stroke-linecap: butt}</style>
 </defs>
 <g id="figure_1">
  <g id="patch_1">
   <path d="M 0 209.99952
L 728.39952 209.99952
L 728.39952 -0
L 0 -0
z
" style="fill: #ffffff"/>
  </g>
  <g id="axes_1">
   <g id="patch_2">
    <path d="M 78.496562 187.089208
L 721.19952 187.089208
L 721.19952 23.558281
L 78.496562 23.558281
z
" style="fill: #ffffff"/>
   </g>
   <g id="patch_3">
    <path d="M 78.496562 30.991505
L 93.464537 30.991505
L 93.464537 55.768918
L 78.496562 55.768918
z
" clip-path="url(#p37f764de31)" style="fill: #72b7b2; stroke: #ffffff; stroke-width: 0.5; stroke-linejoin: miter"/>
   </g>
   <g id="patch_4">
    <path d="M 78.496562 72.287194
L 121.472811 72.287194
L 121.472811 97.064607
L 78.496562 97.064607
z
" clip-path="url(#p37f764de31)" style="fill: #4c78a8; stroke: #ffffff; stroke-width: 0.5; stroke-linejoin: miter"/>
   </g>
   <g id="patch_5">
    <path d="M 78.496562 113.582882
L 188.176313 113.582882
L 188.176313 138.360295
L 78.496562 138.360295
z
" clip-path="url(#p37f764de31)" style="fill: #f58518; stroke: #ffffff; stroke-width: 0.5; stroke-linejoin: miter"/>
   </g>
   <g id="patch_6">
    <path d="M 78.496562 154.878571
L 623.160086 154.878571
L 623.160086 179.655984
L 78.496562 179.655984
z
" clip-path="url(#p37f764de31)" style="fill: #e45756; stroke: #ffffff; stroke-width: 0.5; stroke-linejoin: miter"/>
   </g>
   <g id="matplotlib.axis_1">
    <g id="xtick_1">
     <g id="line2d_1">
      <defs>
       <path id="mc8df0e6e6f" d="M 0 0
L 0 3.5
" style="stroke: #333333; stroke-width: 0.8"/>
      </defs>
      <g>
       <use xlink:href="#mc8df0e6e6f" x="78.496562" y="187.089208" style="fill: #333333; stroke: #333333; stroke-width: 0.8"/>
      </g>
     </g>
     <g id="text_1">
      <!-- 0ns -->
      <g style="fill: #333333" transform="translate(70.437344 200.927801) scale(0.09 -0.09)">
       <defs>
        <path id="DejaVuSans-30" d="M 2034 4250
Q 1547 4250 1301 3770
Q 1056 3291 1056 2328
Q 1056 1369 1301 889
Q 1547 409 2034 409
Q 2525 409 2770 889
Q 3016 1369 3016 2328
Q 3016 3291 2770 3770
Q 2525 4250 2034 4250
z
M 2034 4750
Q 2819 4750 3233 4129
Q 3647 3509 3647 2328
Q 3647 1150 3233 529
Q 2819 -91 2034 -91
Q 1250 -91 836 529
Q 422 1150 422 2328
Q 422 3509 836 4129
Q 1250 4750 2034 4750
z
" transform="scale(0.015625)"/>
        <path id="DejaVuSans-6e" d="M 3513 2113
L 3513 0
L 2938 0
L 2938 2094
Q 2938 2591 2744 2837
Q 2550 3084 2163 3084
Q 1697 3084 1428 2787
Q 1159 2491 1159 1978
L 1159 0
L 581 0
L 581 3500
L 1159 3500
L 1159 2956
Q 1366 3272 1645 3428
Q 1925 3584 2291 3584
Q 2894 3584 3203 3211
Q 3513 2838 3513 2113
z
" transform="scale(0.015625)"/>
        <path id="DejaVuSans-73" d="M 2834 3397
L 2834 2853
Q 2591 2978 2328 3040
Q 2066 3103 1784 3103
Q 1356 3103 1142 2972
Q 928 2841 928 2578
Q 928 2378 1081 2264
Q 1234 2150 1697 2047
L 1894 2003
Q 2506 1872 2764 1633
Q 3022 1394 3022 966
Q 3022 478 2636 193
Q 2250 -91 1575 -91
Q 1294 -91 989 -36
Q 684 19 347 128
L 347 722
Q 666 556 975 473
Q 1284 391 1588 391
Q 1994 391 2212 530
Q 2431 669 2431 922
Q 2431 1156 2273 1281
Q 2116 1406 1581 1522
L 1381 1569
Q 847 1681 609 1914
Q 372 2147 372 2553
Q 372 3047 722 3315
Q 1072 3584 1716 3584
Q 2034 3584 2315 3537
Q 2597 3491 2834 3397
z
" transform="scale(0.015625)"/>
       </defs>
       <use xlink:href="#DejaVuSans-30"/>
       <use xlink:href="#DejaVuSans-6e" transform="translate(63.623047 0)"/>
       <use xlink:href="#DejaVuSans-73" transform="translate(127.001953 0)"/>
      </g>
     </g>
    </g>
    <g id="xtick_2">
     <g id="line2d_2">
      <g>
       <use xlink:href="#mc8df0e6e6f" x="203.581056" y="187.089208" style="fill: #333333; stroke: #333333; stroke-width: 0.8"/>
      </g>
     </g>
     <g id="text_2">
      <!-- 200.0ms -->
      <g style="fill: #333333" transform="translate(183.9709 200.927801) scale(0.09 -0.09)">
       <defs>
        <path id="DejaVuSans-32" d="M 1228 531
L 3431 531
L 3431 0
L 469 0
L 469 531
Q 828 903 1448 1529
Q 2069 2156 2228 2338
Q 2531 2678 2651 2914
Q 2772 3150 2772 3378
Q 2772 3750 2511 3984
Q 2250 4219 1831 4219
Q 1534 4219 1204 4116
Q 875 4013 500 3803
L 500 4441
Q 881 4594 1212 4672
Q 1544 4750 1819 4750
Q 2544 4750 2975 4387
Q 3406 4025 3406 3419
Q 3406 3131 3298 2873
Q 3191 2616 2906 2266
Q 2828 2175 2409 1742
Q 1991 1309 1228 531
z
" transform="scale(0.015625)"/>
        <path id="DejaVuSans-2e" d="M 684 794
L 1344 794
L 1344 0
L 684 0
L 684 794
z
" transform="scale(0.015625)"/>
        <path id="DejaVuSans-6d" d="M 3328 2828
Q 3544 3216 3844 3400
Q 4144 3584 4550 3584
Q 5097 3584 5394 3201
Q 5691 2819 5691 2113
L 5691 0
L 5113 0
L 5113 2094
Q 5113 2597 4934 2840
Q 4756 3084 4391 3084
Q 3944 3084 3684 2787
Q 3425 2491 3425 1978
L 3425 0
L 2847 0
L 2847 2094
Q 2847 2600 2669 2842
Q 2491 3084 2119 3084
Q 1678 3084 1418 2786
Q 1159 2488 1159 1978
L 1159 0
L 581 0
L 581 3500
L 1159 3500
L 1159 2956
Q 1356 3278 1631 3431
Q 1906 3584 2284 3584
Q 2666 3584 2933 3390
Q 3200 3197 3328 2828
z
" transform="scale(0.015625)"/>
       </defs>
       <use xlink:href="#DejaVuSans-32"/>
       <use xlink:href="#DejaVuSans-30" transform="translate(63.623047 0)"/>
       <use xlink:href="#DejaVuSans-30" transform="translate(127.246094 0)"/>
       <use xlink:href="#DejaVuSans-2e" transform="translate(190.869141 0)"/>
       <use xlink:href="#DejaVuSans-30" transform="translate(222.65625 0)"/>
       <use xlink:href="#DejaVuSans-6d" transform="translate(286.279297 0)"/>
       <use xlink:href="#DejaVuSans-73" transform="translate(383.691406 0)"/>
      </g>
     </g>
    </g>
    <g id="xtick_3">
     <g id="line2d_3">
      <g>
       <use xlink:href="#mc8df0e6e6f" x="328.665549" y="187.089208" style="fill: #333333; stroke: #333333; stroke-width: 0.8"/>
      </g>
     </g>
     <g id="text_3">
      <!-- 400.0ms -->
      <g style="fill: #333333" transform="translate(309.055393 200.927801) scale(0.09 -0.09)">
       <defs>
        <path id="DejaVuSans-34" d="M 2419 4116
L 825 1625
L 2419 1625
L 2419 4116
z
M 2253 4666
L 3047 4666
L 3047 1625
L 3713 1625
L 3713 1100
L 3047 1100
L 3047 0
L 2419 0
L 2419 1100
L 313 1100
L 313 1709
L 2253 4666
z
" transform="scale(0.015625)"/>
       </defs>
       <use xlink:href="#DejaVuSans-34"/>
       <use xlink:href="#DejaVuSans-30" transform="translate(63.623047 0)"/>
       <use xlink:href="#DejaVuSans-30" transform="translate(127.246094 0)"/>
       <use xlink:href="#DejaVuSans-2e" transform="translate(190.869141 0)"/>
       <use xlink:href="#DejaVuSans-30" transform="translate(222.65625 0)"/>
       <use xlink:href="#DejaVuSans-6d" transform="translate(286.279297 0)"/>
       <use xlink:href="#DejaVuSans-73" transform="translate(383.691406 0)"/>
      </g>
     </g>
    </g>
    <g id="xtick_4">
     <g id="line2d_4">
      <g>
       <use xlink:href="#mc8df0e6e6f" x="453.750042" y="187.089208" style="fill: #333333; stroke: #333333; stroke-width: 0.8"/>
      </g>
     </g>
     <g id="text_4">
      <!-- 600.0ms -->
      <g style="fill: #333333" transform="translate(434.139886 200.927801) scale(0.09 -0.09)">
       <defs>
        <path id="DejaVuSans-36" d="M 2113 2584
Q 1688 2584 1439 2293
Q 1191 2003 1191 1497
Q 1191 994 1439 701
Q 1688 409 2113 409
Q 2538 409 2786 701
Q 3034 994 3034 1497
Q 3034 2003 2786 2293
Q 2538 2584 2113 2584
z
M 3366 4563
L 3366 3988
Q 3128 4100 2886 4159
Q 2644 4219 2406 4219
Q 1781 4219 1451 3797
Q 1122 3375 1075 2522
Q 1259 2794 1537 2939
Q 1816 3084 2150 3084
Q 2853 3084 3261 2657
Q 3669 2231 3669 1497
Q 3669 778 3244 343
Q 2819 -91 2113 -91
Q 1303 -91 875 529
Q 447 1150 447 2328
Q 447 3434 972 4092
Q 1497 4750 2381 4750
Q 2619 4750 2861 4703
Q 3103 4656 3366 4563
z
" transform="scale(0.015625)"/>
       </defs>
       <use xlink:href="#DejaVuSans-36"/>
       <use xlink:href="#DejaVuSans-30" transform="translate(63.623047 0)"/>
       <use xlink:href="#DejaVuSans-30" transform="translate(127.246094 0)"/>
       <use xlink:href="#DejaVuSans-2e" transform="translate(190.869141 0)"/>
       <use xlink:href="#DejaVuSans-30" transform="translate(222.65625 0)"/>
       <use xlink:href="#DejaVuSans-6d" transform="translate(286.279297 0)"/>
       <use xlink:href="#DejaVuSans-73" transform="translate(383.691406 0)"/>
      </g>
     </g>
    </g>
    <g id="xtick_5">
     <g id="line2d_5">
      <g>
       <use xlink:href="#mc8df0e6e6f" x="578.834536" y="187.089208" style="fill: #333333; stroke: #333333; stroke-width: 0.8"/>
      </g>
     </g>
     <g id="text_5">
      <!-- 800.0ms -->
      <g style="fill: #333333" transform="translate(559.224379 200.927801) scale(0.09 -0.09)">
       <defs>
        <path id="DejaVuSans-38" d="M 2034 2216
Q 1584 2216 1326 1975
Q 1069 1734 1069 1313
Q 1069 891 1326 650
Q 1584 409 2034 409
Q 2484 409 2743 651
Q 3003 894 3003 1313
Q 3003 1734 2745 1975
Q 2488 2216 2034 2216
z
M 1403 2484
Q 997 2584 770 2862
Q 544 3141 544 3541
Q 544 4100 942 4425
Q 1341 4750 2034 4750
Q 2731 4750 3128 4425
Q 3525 4100 3525 3541
Q 3525 3141 3298 2862
Q 3072 2584 2669 2484
Q 3125 2378 3379 2068
Q 3634 1759 3634 1313
Q 3634 634 3220 271
Q 2806 -91 2034 -91
Q 1263 -91 848 271
Q 434 634 434 1313
Q 434 1759 690 2068
Q 947 2378 1403 2484
z
M 1172 3481
Q 1172 3119 1398 2916
Q 1625 2713 2034 2713
Q 2441 2713 2670 2916
Q 2900 3119 2900 3481
Q 2900 3844 2670 4047
Q 2441 4250 2034 4250
Q 1625 4250 1398 4047
Q 1172 3844 1172 3481
z
" transform="scale(0.015625)"/>
       </defs>
       <use xlink:href="#DejaVuSans-38"/>
       <use xlink:href="#DejaVuSans-30" transform="translate(63.623047 0)"/>
       <use xlink:href="#DejaVuSans-30" transform="translate(127.246094 0)"/>
       <use xlink:href="#DejaVuSans-2e" transform="translate(190.869141 0)"/>
       <use xlink:href="#DejaVuSans-30" transform="translate(222.65625 0)"/>
       <use xlink:href="#DejaVuSans-6d" transform="translate(286.279297 0)"/>
       <use xlink:href="#DejaVuSans-73" transform="translate(383.691406 0)"/>
      </g>
     </g>
    </g>
    <g id="xtick_6">
     <g id="line2d_6">
      <g>
       <use xlink:href="#mc8df0e6e6f" x="703.919029" y="187.089208" style="fill: #333333; stroke: #333333; stroke-width: 0.8"/>
      </g>
     </g>
     <g id="text_6">
      <!-- 1.00s -->
      <g style="fill: #333333" transform="translate(691.555279 200.927801) scale(0.09 -0.09)">
       <defs>
        <path id="DejaVuSans-31" d="M 794 531
L 1825 531
L 1825 4091
L 703 3866
L 703 4441
L 1819 4666
L 2450 4666
L 2450 531
L 3481 531
L 3481 0
L 794 0
L 794 531
z
" transform="scale(0.015625)"/>
       </defs>
       <use xlink:href="#DejaVuSans-31"/>
       <use xlink:href="#DejaVuSans-2e" transform="translate(63.623047 0)"/>
       <use xlink:href="#DejaVuSans-30" transform="translate(95.410156 0)"/>
       <use xlink:href="#DejaVuSans-30" transform="translate(159.033203 0)"/>
       <use xlink:href="#DejaVuSans-73" transform="translate(222.65625 0)"/>
      </g>
     </g>
    </g>
   </g>
   <g id="matplotlib.axis_2">
    <g id="ytick_1">
     <g id="line2d_7">
      <defs>
       <path id="m229458eacf" d="M 0 0
L -3.5 0
" style="stroke: #333333; stroke-width: 0.8"/>
      </defs>
      <g>
       <use xlink:href="#m229458eacf" x="78.496562" y="43.380212" style="fill: #333333; stroke: #333333; stroke-width: 0.8"/>
      </g>
     </g>
     <g id="text_7">
      <!-- energyplus- -->
      <g style="fill: #333333" transform="translate(18.28125 42.444352) scale(0.09 -0.09)">
       <defs>
        <path id="DejaVuSans-65" d="M 3597 1894
L 3597 1613
L 953 1613
Q 991 1019 1311 708
Q 1631 397 2203 397
Q 2534 397 2845 478
Q 3156 559 3463 722
L 3463 178
Q 3153 47 2828 -22
Q 2503 -91 2169 -91
Q 1331 -91 842 396
Q 353 884 353 1716
Q 353 2575 817 3079
Q 1281 3584 2069 3584
Q 2775 3584 3186 3129
Q 3597 2675 3597 1894
z
M 3022 2063
Q 3016 2534 2758 2815
Q 2500 3097 2075 3097
Q 1594 3097 1305 2825
Q 1016 2553 972 2059
L 3022 2063
z
" transform="scale(0.015625)"/>
        <path id="DejaVuSans-72" d="M 2631 2963
Q 2534 3019 2420 3045
Q 2306 3072 2169 3072
Q 1681 3072 1420 2755
Q 1159 2438 1159 1844
L 1159 0
L 581 0
L 581 3500
L 1159 3500
L 1159 2956
Q 1341 3275 1631 3429
Q 1922 3584 2338 3584
Q 2397 3584 2469 3576
Q 2541 3569 2628 3553
L 2631 2963
z
" transform="scale(0.015625)"/>
        <path id="DejaVuSans-67" d="M 2906 1791
Q 2906 2416 2648 2759
Q 2391 3103 1925 3103
Q 1463 3103 1205 2759
Q 947 2416 947 1791
Q 947 1169 1205 825
Q 1463 481 1925 481
Q 2391 481 2648 825
Q 2906 1169 2906 1791
z
M 3481 434
Q 3481 -459 3084 -895
Q 2688 -1331 1869 -1331
Q 1566 -1331 1297 -1286
Q 1028 -1241 775 -1147
L 775 -588
Q 1028 -725 1275 -790
Q 1522 -856 1778 -856
Q 2344 -856 2625 -561
Q 2906 -266 2906 331
L 2906 616
Q 2728 306 2450 153
Q 2172 0 1784 0
Q 1141 0 747 490
Q 353 981 353 1791
Q 353 2603 747 3093
Q 1141 3584 1784 3584
Q 2172 3584 2450 3431
Q 2728 3278 2906 2969
L 2906 3500
L 3481 3500
L 3481 434
z
" transform="scale(0.015625)"/>
        <path id="DejaVuSans-79" d="M 2059 -325
Q 1816 -950 1584 -1140
Q 1353 -1331 966 -1331
L 506 -1331
L 506 -850
L 844 -850
Q 1081 -850 1212 -737
Q 1344 -625 1503 -206
L 1606 56
L 191 3500
L 800 3500
L 1894 763
L 2988 3500
L 3597 3500
L 2059 -325
z
" transform="scale(0.015625)"/>
        <path id="DejaVuSans-70" d="M 1159 525
L 1159 -1331
L 581 -1331
L 581 3500
L 1159 3500
L 1159 2969
Q 1341 3281 1617 3432
Q 1894 3584 2278 3584
Q 2916 3584 3314 3078
Q 3713 2572 3713 1747
Q 3713 922 3314 415
Q 2916 -91 2278 -91
Q 1894 -91 1617 61
Q 1341 213 1159 525
z
M 3116 1747
Q 3116 2381 2855 2742
Q 2594 3103 2138 3103
Q 1681 3103 1420 2742
Q 1159 2381 1159 1747
Q 1159 1113 1420 752
Q 1681 391 2138 391
Q 2594 391 2855 752
Q 3116 1113 3116 1747
z
" transform="scale(0.015625)"/>
        <path id="DejaVuSans-6c" d="M 603 4863
L 1178 4863
L 1178 0
L 603 0
L 603 4863
z
" transform="scale(0.015625)"/>
        <path id="DejaVuSans-75" d="M 544 1381
L 544 3500
L 1119 3500
L 1119 1403
Q 1119 906 1312 657
Q 1506 409 1894 409
Q 2359 409 2629 706
Q 2900 1003 2900 1516
L 2900 3500
L 3475 3500
L 3475 0
L 2900 0
L 2900 538
Q 2691 219 2414 64
Q 2138 -91 1772 -91
Q 1169 -91 856 284
Q 544 659 544 1381
z
M 1991 3584
L 1991 3584
z
" transform="scale(0.015625)"/>
        <path id="DejaVuSans-2d" d="M 313 2009
L 1997 2009
L 1997 1497
L 313 1497
L 313 2009
z
" transform="scale(0.015625)"/>
       </defs>
       <use xlink:href="#DejaVuSans-65"/>
       <use xlink:href="#DejaVuSans-6e" transform="translate(61.523438 0)"/>
       <use xlink:href="#DejaVuSans-65" transform="translate(124.902344 0)"/>
       <use xlink:href="#DejaVuSans-72" transform="translate(186.425781 0)"/>
       <use xlink:href="#DejaVuSans-67" transform="translate(225.789062 0)"/>
       <use xlink:href="#DejaVuSans-79" transform="translate(289.265625 0)"/>
       <use xlink:href="#DejaVuSans-70" transform="translate(348.445312 0)"/>
       <use xlink:href="#DejaVuSans-6c" transform="translate(411.921875 0)"/>
       <use xlink:href="#DejaVuSans-75" transform="translate(439.705078 0)"/>
       <use xlink:href="#DejaVuSans-73" transform="translate(503.083984 0)"/>
       <use xlink:href="#DejaVuSans-2d" transform="translate(555.183594 0)"/>
      </g>
      <!-- idd-idf-utilities -->
      <g style="fill: #333333" transform="translate(7.2 52.522384) scale(0.09 -0.09)">
       <defs>
        <path id="DejaVuSans-69" d="M 603 3500
L 1178 3500
L 1178 0
L 603 0
L 603 3500
z
M 603 4863
L 1178 4863
L 1178 4134
L 603 4134
L 603 4863
z
" transform="scale(0.015625)"/>
        <path id="DejaVuSans-64" d="M 2906 2969
L 2906 4863
L 3481 4863
L 3481 0
L 2906 0
L 2906 525
Q 2725 213 2448 61
Q 2172 -91 1784 -91
Q 1150 -91 751 415
Q 353 922 353 1747
Q 353 2572 751 3078
Q 1150 3584 1784 3584
Q 2172 3584 2448 3432
Q 2725 3281 2906 2969
z
M 947 1747
Q 947 1113 1208 752
Q 1469 391 1925 391
Q 2381 391 2643 752
Q 2906 1113 2906 1747
Q 2906 2381 2643 2742
Q 2381 3103 1925 3103
Q 1469 3103 1208 2742
Q 947 2381 947 1747
z
" transform="scale(0.015625)"/>
        <path id="DejaVuSans-66" d="M 2375 4863
L 2375 4384
L 1825 4384
Q 1516 4384 1395 4259
Q 1275 4134 1275 3809
L 1275 3500
L 2222 3500
L 2222 3053
L 1275 3053
L 1275 0
L 697 0
L 697 3053
L 147 3053
L 147 3500
L 697 3500
L 697 3744
Q 697 4328 969 4595
Q 1241 4863 1831 4863
L 2375 4863
z
" transform="scale(0.015625)"/>
        <path id="DejaVuSans-74" d="M 1172 4494
L 1172 3500
L 2356 3500
L 2356 3053
L 1172 3053
L 1172 1153
Q 1172 725 1289 603
Q 1406 481 1766 481
L 2356 481
L 2356 0
L 1766 0
Q 1100 0 847 248
Q 594 497 594 1153
L 594 3053
L 172 3053
L 172 3500
L 594 3500
L 594 4494
L 1172 4494
z
" transform="scale(0.015625)"/>
       </defs>
       <use xlink:href="#DejaVuSans-69"/>
       <use xlink:href="#DejaVuSans-64" transform="translate(27.783203 0)"/>
       <use xlink:href="#DejaVuSans-64" transform="translate(91.259766 0)"/>
       <use xlink:href="#DejaVuSans-2d" transform="translate(154.736328 0)"/>
       <use xlink:href="#DejaVuSans-69" transform="translate(190.820312 0)"/>
       <use xlink:href="#DejaVuSans-64" transform="translate(218.603516 0)"/>
       <use xlink:href="#DejaVuSans-66" transform="translate(282.080078 0)"/>
       <use xlink:href="#DejaVuSans-2d" transform="translate(311.785156 0)"/>
       <use xlink:href="#DejaVuSans-75" transform="translate(347.869141 0)"/>
       <use xlink:href="#DejaVuSans-74" transform="translate(411.248047 0)"/>
       <use xlink:href="#DejaVuSans-69" transform="translate(450.457031 0)"/>
       <use xlink:href="#DejaVuSans-6c" transform="translate(478.240234 0)"/>
       <use xlink:href="#DejaVuSans-69" transform="translate(506.023438 0)"/>
       <use xlink:href="#DejaVuSans-74" transform="translate(533.806641 0)"/>
       <use xlink:href="#DejaVuSans-69" transform="translate(573.015625 0)"/>
       <use xlink:href="#DejaVuSans-65" transform="translate(600.798828 0)"/>
       <use xlink:href="#DejaVuSans-73" transform="translate(662.322266 0)"/>
      </g>
     </g>
    </g>
    <g id="ytick_2">
     <g id="line2d_8">
      <g>
       <use xlink:href="#m229458eacf" x="78.496562" y="84.6759" style="fill: #333333; stroke: #333333; stroke-width: 0.8"/>
      </g>
     </g>
     <g id="text_8">
      <!-- idfkit -->
      <g style="fill: #333333" transform="translate(48.874219 88.095197) scale(0.09 -0.09)">
       <defs>
        <path id="DejaVuSans-6b" d="M 581 4863
L 1159 4863
L 1159 1991
L 2875 3500
L 3609 3500
L 1753 1863
L 3688 0
L 2938 0
L 1159 1709
L 1159 0
L 581 0
L 581 4863
z
" transform="scale(0.015625)"/>
       </defs>
       <use xlink:href="#DejaVuSans-69"/>
       <use xlink:href="#DejaVuSans-64" transform="translate(27.783203 0)"/>
       <use xlink:href="#DejaVuSans-66" transform="translate(91.259766 0)"/>
       <use xlink:href="#DejaVuSans-6b" transform="translate(126.464844 0)"/>
       <use xlink:href="#DejaVuSans-69" transform="translate(184.375 0)"/>
       <use xlink:href="#DejaVuSans-74" transform="translate(212.158203 0)"/>
      </g>
     </g>
    </g>
    <g id="ytick_3">
     <g id="line2d_9">
      <g>
       <use xlink:href="#m229458eacf" x="78.496562" y="125.971589" style="fill: #333333; stroke: #333333; stroke-width: 0.8"/>
      </g>
     </g>
     <g id="text_9">
      <!-- opyplus -->
      <g style="fill: #333333" transform="translate(36.343125 129.390885) scale(0.09 -0.09)">
       <defs>
        <path id="DejaVuSans-6f" d="M 1959 3097
Q 1497 3097 1228 2736
Q 959 2375 959 1747
Q 959 1119 1226 758
Q 1494 397 1959 397
Q 2419 397 2687 759
Q 2956 1122 2956 1747
Q 2956 2369 2687 2733
Q 2419 3097 1959 3097
z
M 1959 3584
Q 2709 3584 3137 3096
Q 3566 2609 3566 1747
Q 3566 888 3137 398
Q 2709 -91 1959 -91
Q 1206 -91 779 398
Q 353 888 353 1747
Q 353 2609 779 3096
Q 1206 3584 1959 3584
z
" transform="scale(0.015625)"/>
       </defs>
       <use xlink:href="#DejaVuSans-6f"/>
       <use xlink:href="#DejaVuSans-70" transform="translate(61.181641 0)"/>
       <use xlink:href="#DejaVuSans-79" transform="translate(124.658203 0)"/>
       <use xlink:href="#DejaVuSans-70" transform="translate(183.837891 0)"/>
       <use xlink:href="#DejaVuSans-6c" transform="translate(247.314453 0)"/>
       <use xlink:href="#DejaVuSans-75" transform="translate(275.097656 0)"/>
       <use xlink:href="#DejaVuSans-73" transform="translate(338.476562 0)"/>
      </g>
     </g>
    </g>
    <g id="ytick_4">
     <g id="line2d_10">
      <g>
       <use xlink:href="#m229458eacf" x="78.496562" y="167.267277" style="fill: #333333; stroke: #333333; stroke-width: 0.8"/>
      </g>
     </g>
     <g id="text_10">
      <!-- eppy -->
      <g style="fill: #333333" transform="translate(49.204687 170.686574) scale(0.09 -0.09)">
       <use xlink:href="#DejaVuSans-65"/>
       <use xlink:href="#DejaVuSans-70" transform="translate(61.523438 0)"/>
       <use xlink:href="#DejaVuSans-70" transform="translate(125 0)"/>
       <use xlink:href="#DejaVuSans-79" transform="translate(188.476562 0)"/>
      </g>
     </g>
    </g>
   </g>
   <g id="patch_7">
    <path d="M 78.496562 187.089208
L 78.496562 23.558281
" style="fill: none; stroke: #cccccc; stroke-width: 0.8; stroke-linejoin: miter; stroke-linecap: square"/>
   </g>
   <g id="patch_8">
    <path d="M 78.496562 187.089208
L 721.19952 187.089208
" style="fill: none; stroke: #cccccc; stroke-width: 0.8; stroke-linejoin: miter; stroke-linecap: square"/>
   </g>
   <g id="text_11">
    <!-- 23.9ms -->
    <g style="fill: #333333" transform="translate(104.357807 45.863649) scale(0.09 -0.09)">
     <defs>
      <path id="DejaVuSans-Bold-32" d="M 1844 884
L 3897 884
L 3897 0
L 506 0
L 506 884
L 2209 2388
Q 2438 2594 2547 2791
Q 2656 2988 2656 3200
Q 2656 3528 2436 3728
Q 2216 3928 1850 3928
Q 1569 3928 1234 3808
Q 900 3688 519 3450
L 519 4475
Q 925 4609 1322 4679
Q 1719 4750 2100 4750
Q 2938 4750 3402 4381
Q 3866 4013 3866 3353
Q 3866 2972 3669 2642
Q 3472 2313 2841 1759
L 1844 884
z
" transform="scale(0.015625)"/>
      <path id="DejaVuSans-Bold-33" d="M 2981 2516
Q 3453 2394 3698 2092
Q 3944 1791 3944 1325
Q 3944 631 3412 270
Q 2881 -91 1863 -91
Q 1503 -91 1142 -33
Q 781 25 428 141
L 428 1069
Q 766 900 1098 814
Q 1431 728 1753 728
Q 2231 728 2486 893
Q 2741 1059 2741 1369
Q 2741 1688 2480 1852
Q 2219 2016 1709 2016
L 1228 2016
L 1228 2791
L 1734 2791
Q 2188 2791 2409 2933
Q 2631 3075 2631 3366
Q 2631 3634 2415 3781
Q 2200 3928 1806 3928
Q 1516 3928 1219 3862
Q 922 3797 628 3669
L 628 4550
Q 984 4650 1334 4700
Q 1684 4750 2022 4750
Q 2931 4750 3382 4451
Q 3834 4153 3834 3553
Q 3834 3144 3618 2883
Q 3403 2622 2981 2516
z
" transform="scale(0.015625)"/>
      <path id="DejaVuSans-Bold-2e" d="M 653 1209
L 1778 1209
L 1778 0
L 653 0
L 653 1209
z
" transform="scale(0.015625)"/>
      <path id="DejaVuSans-Bold-39" d="M 641 103
L 641 966
Q 928 831 1190 764
Q 1453 697 1709 697
Q 2247 697 2547 995
Q 2847 1294 2900 1881
Q 2688 1725 2447 1647
Q 2206 1569 1925 1569
Q 1209 1569 770 1986
Q 331 2403 331 3084
Q 331 3838 820 4291
Q 1309 4744 2131 4744
Q 3044 4744 3544 4128
Q 4044 3513 4044 2388
Q 4044 1231 3459 570
Q 2875 -91 1856 -91
Q 1528 -91 1228 -42
Q 928 6 641 103
z
M 2125 2350
Q 2441 2350 2600 2554
Q 2759 2759 2759 3169
Q 2759 3575 2600 3781
Q 2441 3988 2125 3988
Q 1809 3988 1650 3781
Q 1491 3575 1491 3169
Q 1491 2759 1650 2554
Q 1809 2350 2125 2350
z
" transform="scale(0.015625)"/>
      <path id="DejaVuSans-Bold-6d" d="M 3781 2919
Q 3994 3244 4286 3414
Q 4578 3584 4928 3584
Q 5531 3584 5847 3212
Q 6163 2841 6163 2131
L 6163 0
L 5038 0
L 5038 1825
Q 5041 1866 5042 1909
Q 5044 1953 5044 2034
Q 5044 2406 4934 2573
Q 4825 2741 4581 2741
Q 4263 2741 4089 2478
Q 3916 2216 3909 1719
L 3909 0
L 2784 0
L 2784 1825
Q 2784 2406 2684 2573
Q 2584 2741 2328 2741
Q 2006 2741 1831 2477
Q 1656 2213 1656 1722
L 1656 0
L 531 0
L 531 3500
L 1656 3500
L 1656 2988
Q 1863 3284 2130 3434
Q 2397 3584 2719 3584
Q 3081 3584 3359 3409
Q 3638 3234 3781 2919
z
" transform="scale(0.015625)"/>
      <path id="DejaVuSans-Bold-73" d="M 3272 3391
L 3272 2541
Q 2913 2691 2578 2766
Q 2244 2841 1947 2841
Q 1628 2841 1473 2761
Q 1319 2681 1319 2516
Q 1319 2381 1436 2309
Q 1553 2238 1856 2203
L 2053 2175
Q 2913 2066 3209 1816
Q 3506 1566 3506 1031
Q 3506 472 3093 190
Q 2681 -91 1863 -91
Q 1516 -91 1145 -36
Q 775 19 384 128
L 384 978
Q 719 816 1070 734
Q 1422 653 1784 653
Q 2113 653 2278 743
Q 2444 834 2444 1013
Q 2444 1163 2330 1236
Q 2216 1309 1875 1350
L 1678 1375
Q 931 1469 631 1722
Q 331 1975 331 2491
Q 331 3047 712 3315
Q 1094 3584 1881 3584
Q 2191 3584 2531 3537
Q 2872 3491 3272 3391
z
" transform="scale(0.015625)"/>
     </defs>
     <use xlink:href="#DejaVuSans-Bold-32"/>
     <use xlink:href="#DejaVuSans-Bold-33" transform="translate(69.580078 0)"/>
     <use xlink:href="#DejaVuSans-Bold-2e" transform="translate(139.160156 0)"/>
     <use xlink:href="#DejaVuSans-Bold-39" transform="translate(177.148438 0)"/>
     <use xlink:href="#DejaVuSans-Bold-6d" transform="translate(246.728516 0)"/>
     <use xlink:href="#DejaVuSans-Bold-73" transform="translate(350.927734 0)"/>
    </g>
   </g>
   <g id="text_12">
    <!-- 68.7ms -->
    <g style="fill: #333333" transform="translate(132.366082 87.159338) scale(0.09 -0.09)">
     <defs>
      <path id="DejaVuSans-Bold-36" d="M 2316 2303
Q 2000 2303 1842 2098
Q 1684 1894 1684 1484
Q 1684 1075 1842 870
Q 2000 666 2316 666
Q 2634 666 2792 870
Q 2950 1075 2950 1484
Q 2950 1894 2792 2098
Q 2634 2303 2316 2303
z
M 3803 4544
L 3803 3681
Q 3506 3822 3243 3889
Q 2981 3956 2731 3956
Q 2194 3956 1894 3657
Q 1594 3359 1544 2772
Q 1750 2925 1990 3001
Q 2231 3078 2516 3078
Q 3231 3078 3670 2659
Q 4109 2241 4109 1563
Q 4109 813 3618 361
Q 3128 -91 2303 -91
Q 1394 -91 895 523
Q 397 1138 397 2266
Q 397 3422 980 4083
Q 1563 4744 2578 4744
Q 2900 4744 3203 4694
Q 3506 4644 3803 4544
z
" transform="scale(0.015625)"/>
      <path id="DejaVuSans-Bold-38" d="M 2228 2088
Q 1891 2088 1709 1903
Q 1528 1719 1528 1375
Q 1528 1031 1709 848
Q 1891 666 2228 666
Q 2563 666 2741 848
Q 2919 1031 2919 1375
Q 2919 1722 2741 1905
Q 2563 2088 2228 2088
z
M 1350 2484
Q 925 2613 709 2878
Q 494 3144 494 3541
Q 494 4131 934 4440
Q 1375 4750 2228 4750
Q 3075 4750 3515 4442
Q 3956 4134 3956 3541
Q 3956 3144 3739 2878
Q 3522 2613 3097 2484
Q 3572 2353 3814 2058
Q 4056 1763 4056 1313
Q 4056 619 3595 264
Q 3134 -91 2228 -91
Q 1319 -91 855 264
Q 391 619 391 1313
Q 391 1763 633 2058
Q 875 2353 1350 2484
z
M 1631 3419
Q 1631 3141 1786 2991
Q 1941 2841 2228 2841
Q 2509 2841 2662 2991
Q 2816 3141 2816 3419
Q 2816 3697 2662 3845
Q 2509 3994 2228 3994
Q 1941 3994 1786 3844
Q 1631 3694 1631 3419
z
" transform="scale(0.015625)"/>
      <path id="DejaVuSans-Bold-37" d="M 428 4666
L 3944 4666
L 3944 3988
L 2125 0
L 953 0
L 2675 3781
L 428 3781
L 428 4666
z
" transform="scale(0.015625)"/>
     </defs>
     <use xlink:href="#DejaVuSans-Bold-36"/>
     <use xlink:href="#DejaVuSans-Bold-38" transform="translate(69.580078 0)"/>
     <use xlink:href="#DejaVuSans-Bold-2e" transform="translate(139.160156 0)"/>
     <use xlink:href="#DejaVuSans-Bold-37" transform="translate(177.148438 0)"/>
     <use xlink:href="#DejaVuSans-Bold-6d" transform="translate(246.728516 0)"/>
     <use xlink:href="#DejaVuSans-Bold-73" transform="translate(350.927734 0)"/>
    </g>
   </g>
   <g id="text_13">
    <!-- 175.4ms -->
    <g style="fill: #333333" transform="translate(199.069584 128.455026) scale(0.09 -0.09)">
     <defs>
      <path id="DejaVuSans-Bold-31" d="M 750 831
L 1813 831
L 1813 3847
L 722 3622
L 722 4441
L 1806 4666
L 2950 4666
L 2950 831
L 4013 831
L 4013 0
L 750 0
L 750 831
z
" transform="scale(0.015625)"/>
      <path id="DejaVuSans-Bold-35" d="M 678 4666
L 3669 4666
L 3669 3781
L 1638 3781
L 1638 3059
Q 1775 3097 1914 3117
Q 2053 3138 2203 3138
Q 3056 3138 3531 2711
Q 4006 2284 4006 1522
Q 4006 766 3489 337
Q 2972 -91 2053 -91
Q 1656 -91 1267 -14
Q 878 63 494 219
L 494 1166
Q 875 947 1217 837
Q 1559 728 1863 728
Q 2300 728 2551 942
Q 2803 1156 2803 1522
Q 2803 1891 2551 2103
Q 2300 2316 1863 2316
Q 1603 2316 1309 2248
Q 1016 2181 678 2041
L 678 4666
z
" transform="scale(0.015625)"/>
      <path id="DejaVuSans-Bold-34" d="M 2356 3675
L 1038 1722
L 2356 1722
L 2356 3675
z
M 2156 4666
L 3494 4666
L 3494 1722
L 4159 1722
L 4159 850
L 3494 850
L 3494 0
L 2356 0
L 2356 850
L 288 850
L 288 1881
L 2156 4666
z
" transform="scale(0.015625)"/>
     </defs>
     <use xlink:href="#DejaVuSans-Bold-31"/>
     <use xlink:href="#DejaVuSans-Bold-37" transform="translate(69.580078 0)"/>
     <use xlink:href="#DejaVuSans-Bold-35" transform="translate(139.160156 0)"/>
     <use xlink:href="#DejaVuSans-Bold-2e" transform="translate(208.740234 0)"/>
     <use xlink:href="#DejaVuSans-Bold-34" transform="translate(246.728516 0)"/>
     <use xlink:href="#DejaVuSans-Bold-6d" transform="translate(316.308594 0)"/>
     <use xlink:href="#DejaVuSans-Bold-73" transform="translate(420.507812 0)"/>
    </g>
   </g>
   <g id="text_14">
    <!-- 870.9ms -->
    <g style="fill: #ffffff" transform="translate(569.065409 169.750715) scale(0.09 -0.09)">
     <defs>
      <path id="DejaVuSans-Bold-30" d="M 2944 2338
Q 2944 3213 2780 3570
Q 2616 3928 2228 3928
Q 1841 3928 1675 3570
Q 1509 3213 1509 2338
Q 1509 1453 1675 1090
Q 1841 728 2228 728
Q 2613 728 2778 1090
Q 2944 1453 2944 2338
z
M 4147 2328
Q 4147 1169 3647 539
Q 3147 -91 2228 -91
Q 1306 -91 806 539
Q 306 1169 306 2328
Q 306 3491 806 4120
Q 1306 4750 2228 4750
Q 3147 4750 3647 4120
Q 4147 3491 4147 2328
z
" transform="scale(0.015625)"/>
     </defs>
     <use xlink:href="#DejaVuSans-Bold-38"/>
     <use xlink:href="#DejaVuSans-Bold-37" transform="translate(69.580078 0)"/>
     <use xlink:href="#DejaVuSans-Bold-30" transform="translate(139.160156 0)"/>
     <use xlink:href="#DejaVuSans-Bold-2e" transform="translate(208.740234 0)"/>
     <use xlink:href="#DejaVuSans-Bold-39" transform="translate(246.728516 0)"/>
     <use xlink:href="#DejaVuSans-Bold-6d" transform="translate(316.308594 0)"/>
     <use xlink:href="#DejaVuSans-Bold-73" transform="translate(420.507812 0)"/>
    </g>
   </g>
   <g id="text_15">
    <!-- Load IDF file  (13x) -->
    <g style="fill: #333333" transform="translate(78.496562 15.558281) scale(0.11 -0.11)">
     <defs>
      <path id="DejaVuSans-Bold-4c" d="M 588 4666
L 1791 4666
L 1791 909
L 3903 909
L 3903 0
L 588 0
L 588 4666
z
" transform="scale(0.015625)"/>
      <path id="DejaVuSans-Bold-6f" d="M 2203 2784
Q 1831 2784 1636 2517
Q 1441 2250 1441 1747
Q 1441 1244 1636 976
Q 1831 709 2203 709
Q 2569 709 2762 976
Q 2956 1244 2956 1747
Q 2956 2250 2762 2517
Q 2569 2784 2203 2784
z
M 2203 3584
Q 3106 3584 3614 3096
Q 4122 2609 4122 1747
Q 4122 884 3614 396
Q 3106 -91 2203 -91
Q 1297 -91 786 396
Q 275 884 275 1747
Q 275 2609 786 3096
Q 1297 3584 2203 3584
z
" transform="scale(0.015625)"/>
      <path id="DejaVuSans-Bold-61" d="M 2106 1575
Q 1756 1575 1579 1456
Q 1403 1338 1403 1106
Q 1403 894 1545 773
Q 1688 653 1941 653
Q 2256 653 2472 879
Q 2688 1106 2688 1447
L 2688 1575
L 2106 1575
z
M 3816 1997
L 3816 0
L 2688 0
L 2688 519
Q 2463 200 2181 54
Q 1900 -91 1497 -91
Q 953 -91 614 226
Q 275 544 275 1050
Q 275 1666 698 1953
Q 1122 2241 2028 2241
L 2688 2241
L 2688 2328
Q 2688 2594 2478 2717
Q 2269 2841 1825 2841
Q 1466 2841 1156 2769
Q 847 2697 581 2553
L 581 3406
Q 941 3494 1303 3539
Q 1666 3584 2028 3584
Q 2975 3584 3395 3211
Q 3816 2838 3816 1997
z
" transform="scale(0.015625)"/>
      <path id="DejaVuSans-Bold-64" d="M 2919 2988
L 2919 4863
L 4044 4863
L 4044 0
L 2919 0
L 2919 506
Q 2688 197 2409 53
Q 2131 -91 1766 -91
Q 1119 -91 703 423
Q 288 938 288 1747
Q 288 2556 703 3070
Q 1119 3584 1766 3584
Q 2128 3584 2408 3439
Q 2688 3294 2919 2988
z
M 2181 722
Q 2541 722 2730 984
Q 2919 1247 2919 1747
Q 2919 2247 2730 2509
Q 2541 2772 2181 2772
Q 1825 2772 1636 2509
Q 1447 2247 1447 1747
Q 1447 1247 1636 984
Q 1825 722 2181 722
z
" transform="scale(0.015625)"/>
      <path id="DejaVuSans-Bold-20" transform="scale(0.015625)"/>
      <path id="DejaVuSans-Bold-49" d="M 588 4666
L 1791 4666
L 1791 0
L 588 0
L 588 4666
z
" transform="scale(0.015625)"/>
      <path id="DejaVuSans-Bold-44" d="M 1791 3756
L 1791 909
L 2222 909
Q 2959 909 3348 1275
Q 3738 1641 3738 2338
Q 3738 3031 3350 3393
Q 2963 3756 2222 3756
L 1791 3756
z
M 588 4666
L 1856 4666
Q 2919 4666 3439 4514
Q 3959 4363 4331 4000
Q 4659 3684 4818 3271
Q 4978 2859 4978 2338
Q 4978 1809 4818 1395
Q 4659 981 4331 666
Q 3956 303 3431 151
Q 2906 0 1856 0
L 588 0
L 588 4666
z
" transform="scale(0.015625)"/>
      <path id="DejaVuSans-Bold-46" d="M 588 4666
L 3834 4666
L 3834 3756
L 1791 3756
L 1791 2888
L 3713 2888
L 3713 1978
L 1791 1978
L 1791 0
L 588 0
L 588 4666
z
" transform="scale(0.015625)"/>
      <path id="DejaVuSans-Bold-66" d="M 2841 4863
L 2841 4128
L 2222 4128
Q 1984 4128 1890 4042
Q 1797 3956 1797 3744
L 1797 3500
L 2753 3500
L 2753 2700
L 1797 2700
L 1797 0
L 678 0
L 678 2700
L 122 2700
L 122 3500
L 678 3500
L 678 3744
Q 678 4316 997 4589
Q 1316 4863 1984 4863
L 2841 4863
z
" transform="scale(0.015625)"/>
      <path id="DejaVuSans-Bold-69" d="M 538 3500
L 1656 3500
L 1656 0
L 538 0
L 538 3500
z
M 538 4863
L 1656 4863
L 1656 3950
L 538 3950
L 538 4863
z
" transform="scale(0.015625)"/>
      <path id="DejaVuSans-Bold-6c" d="M 538 4863
L 1656 4863
L 1656 0
L 538 0
L 538 4863
z
" transform="scale(0.015625)"/>
      <path id="DejaVuSans-Bold-65" d="M 4031 1759
L 4031 1441
L 1416 1441
Q 1456 1047 1700 850
Q 1944 653 2381 653
Q 2734 653 3104 758
Q 3475 863 3866 1075
L 3866 213
Q 3469 63 3072 -14
Q 2675 -91 2278 -91
Q 1328 -91 801 392
Q 275 875 275 1747
Q 275 2603 792 3093
Q 1309 3584 2216 3584
Q 3041 3584 3536 3087
Q 4031 2591 4031 1759
z
M 2881 2131
Q 2881 2450 2695 2645
Q 2509 2841 2209 2841
Q 1884 2841 1681 2658
Q 1478 2475 1428 2131
L 2881 2131
z
" transform="scale(0.015625)"/>
      <path id="DejaVuSans-Bold-28" d="M 2413 -844
L 1484 -844
Q 1006 -72 778 623
Q 550 1319 550 2003
Q 550 2688 779 3389
Q 1009 4091 1484 4856
L 2413 4856
Q 2013 4116 1813 3408
Q 1613 2700 1613 2009
Q 1613 1319 1811 609
Q 2009 -100 2413 -844
z
" transform="scale(0.015625)"/>
      <path id="DejaVuSans-Bold-78" d="M 1422 1791
L 159 3500
L 1344 3500
L 2059 2463
L 2784 3500
L 3969 3500
L 2706 1797
L 4031 0
L 2847 0
L 2059 1106
L 1281 0
L 97 0
L 1422 1791
z
" transform="scale(0.015625)"/>
      <path id="DejaVuSans-Bold-29" d="M 513 -844
Q 913 -100 1113 609
Q 1313 1319 1313 2009
Q 1313 2700 1113 3408
Q 913 4116 513 4856
L 1441 4856
Q 1916 4091 2145 3389
Q 2375 2688 2375 2003
Q 2375 1319 2147 623
Q 1919 -72 1441 -844
L 513 -844
z
" transform="scale(0.015625)"/>
     </defs>
     <use xlink:href="#DejaVuSans-Bold-4c"/>
     <use xlink:href="#DejaVuSans-Bold-6f" transform="translate(63.720703 0)"/>
     <use xlink:href="#DejaVuSans-Bold-61" transform="translate(132.421875 0)"/>
     <use xlink:href="#DejaVuSans-Bold-64" transform="translate(199.902344 0)"/>
     <use xlink:href="#DejaVuSans-Bold-20" transform="translate(271.484375 0)"/>
     <use xlink:href="#DejaVuSans-Bold-49" transform="translate(306.298828 0)"/>
     <use xlink:href="#DejaVuSans-Bold-44" transform="translate(343.505859 0)"/>
     <use xlink:href="#DejaVuSans-Bold-46" transform="translate(426.513672 0)"/>
     <use xlink:href="#DejaVuSans-Bold-20" transform="translate(494.824219 0)"/>
     <use xlink:href="#DejaVuSans-Bold-66" transform="translate(529.638672 0)"/>
     <use xlink:href="#DejaVuSans-Bold-69" transform="translate(573.144531 0)"/>
     <use xlink:href="#DejaVuSans-Bold-6c" transform="translate(607.421875 0)"/>
     <use xlink:href="#DejaVuSans-Bold-65" transform="translate(641.699219 0)"/>
     <use xlink:href="#DejaVuSans-Bold-20" transform="translate(709.521484 0)"/>
     <use xlink:href="#DejaVuSans-Bold-20" transform="translate(744.335938 0)"/>
     <use xlink:href="#DejaVuSans-Bold-28" transform="translate(779.150391 0)"/>
     <use xlink:href="#DejaVuSans-Bold-31" transform="translate(824.853516 0)"/>
     <use xlink:href="#DejaVuSans-Bold-33" transform="translate(894.433594 0)"/>
     <use xlink:href="#DejaVuSans-Bold-78" transform="translate(964.013672 0)"/>
     <use xlink:href="#DejaVuSans-Bold-29" transform="translate(1028.515625 0)"/>
    </g>
   </g>
  </g>
 </g>
 <defs>
  <clipPath id="p37f764de31">
   <rect x="78.496562" y="23.558281" width="642.702957" height="163.530926"/>
  </clipPath>
 </defs>
</svg>
